<svg width="195" height="54" viewBox="0 0 195 54" fill="none" xmlns="http://www.w3.org/2000/svg">
<g clip-path="url(#clip0_385_696)">
<path d="M16.8915 40.1644V34.9559V34.938C16.8915 34.6158 16.5388 34.3116 16.1861 34.3116H12.7568C12.7176 34.3116 12.6785 34.2758 12.6785 34.24V10.3275C12.6785 10.0053 12.3257 9.70102 11.973 9.70102H11.8358C11.8358 9.70102 11.8358 9.70102 11.8162 9.70102H0.921001C0.921001 9.70102 0.921001 9.70102 0.901405 9.70102H0.764235C0.411511 9.70102 0.0587873 10.0232 0.0587873 10.3275V15.9118C0.0587873 16.234 0.411511 16.5383 0.764235 16.5383H4.50702C4.54622 16.5383 4.58541 16.5741 4.58541 16.6099V34.2579C4.58541 34.2937 4.54622 34.3295 4.50702 34.3295H0.705447C0.352724 34.3295 0 34.6516 0 34.9559V40.3076C0 40.6119 0.352724 40.934 0.705447 40.934H16.2253C16.4212 40.934 16.578 40.8087 16.6956 40.6835C16.8132 40.5761 16.8915 40.4329 16.8915 40.2897M0.764235 40.1644V35.0991C0.764235 35.0633 0.803426 35.0275 0.842618 35.0275H1.01898L4.66379 35.0096C5.01651 35.0096 5.36924 34.6874 5.36924 34.3832V16.4667C5.36924 16.1445 5.01651 15.8402 4.66379 15.8402H0.921001C0.881809 15.8402 0.842618 15.8044 0.842618 15.7686V10.4707C0.842618 10.4349 0.881809 10.3991 0.921001 10.3991H11.875C11.9142 10.3991 11.9534 10.4349 11.9534 10.4707V34.3832C11.9534 34.7053 12.2865 35.0096 12.6589 35.0096H16.0881C16.1273 35.0096 16.1665 35.0454 16.1665 35.0812V40.1644C16.1665 40.2002 16.1273 40.236 16.0881 40.236H0.999384H0.842618C0.803426 40.2539 0.764235 40.2181 0.764235 40.1644Z" fill="black"/>
<path d="M4.68347 8.26914H11.4048C11.5812 8.26914 11.7575 8.16175 11.8751 8.05436C11.9927 7.94697 12.0907 7.76798 12.0907 7.62479V7.5532C12.0907 7.5353 12.0907 7.4995 12.0907 7.4816V0.62645C12.0711 0.322174 11.7184 0 11.3656 0H11.2285C11.2285 0 11.2285 0 11.2089 0H4.84024C4.84024 0 4.84024 0 4.82065 0H4.68347C4.33075 0 3.97803 0.322174 3.97803 0.62645V7.64269C3.97803 7.96487 4.33075 8.26914 4.68347 8.26914ZM4.74226 7.4816V0.769639C4.74226 0.733842 4.78145 0.698044 4.82065 0.698044H11.2089C11.2481 0.698044 11.2872 0.733842 11.2872 0.769639V7.4816C11.2872 7.5174 11.2481 7.5532 11.2089 7.5532H4.97741H4.82065C4.78145 7.5532 4.74226 7.5174 4.74226 7.4816Z" fill="black"/>
<path d="M155.238 34.9559C155.238 34.6516 154.983 34.3295 154.532 34.3295H151.103C151.064 34.3295 151.025 34.2937 151.025 34.2579V10.3275C151.025 10.0053 150.691 9.70102 150.319 9.70102H150.182C150.182 9.70102 150.182 9.70102 150.162 9.70102H139.247C139.247 9.70102 139.247 9.70102 139.228 9.70102H139.13C138.797 9.70102 138.424 10.0053 138.424 10.3275V15.9118C138.424 16.234 138.777 16.5383 139.13 16.5383H142.892C142.931 16.5383 142.971 16.5741 142.971 16.6099V34.2579C142.971 34.2937 142.931 34.3295 142.892 34.3295H139.091C138.738 34.3295 138.385 34.6516 138.385 34.9738V34.9559V40.3076C138.385 40.6477 138.738 40.934 139.091 40.934H154.611C154.846 40.934 154.983 40.8445 155.1 40.7013C155.238 40.5582 155.257 40.3971 155.257 40.1286V34.9559H155.238ZM139.149 40.1644V35.0991C139.149 35.0633 139.189 35.0275 139.228 35.0275H139.404L143.069 35.0096C143.421 35.0096 143.774 34.6874 143.774 34.3832V16.4667C143.774 16.1445 143.441 15.8402 143.069 15.8402H139.326C139.287 15.8402 139.247 15.8044 139.247 15.7686V10.4707C139.247 10.4349 139.287 10.3991 139.326 10.3991H150.26C150.299 10.3991 150.339 10.4349 150.339 10.4707V34.3832C150.339 34.7232 150.691 35.0096 151.044 35.0096H154.473C154.513 35.0096 154.552 35.0454 154.552 35.0812V40.1644C154.552 40.2002 154.513 40.236 154.473 40.236H139.424H139.267C139.189 40.2539 139.149 40.2181 139.149 40.1644Z" fill="black"/>
<path d="M143.069 8.26914H149.77C150.123 8.26914 150.476 7.92907 150.476 7.62479V0.62645C150.476 0.304276 150.123 0 149.77 0H143.069C142.716 0 142.363 0.322174 142.363 0.62645V7.64269C142.383 7.96487 142.736 8.26914 143.069 8.26914ZM143.128 7.4816V0.769639C143.128 0.733842 143.167 0.698044 143.206 0.698044H149.594C149.633 0.698044 149.672 0.733842 149.672 0.769639V7.4816C149.672 7.5174 149.633 7.5532 149.594 7.5532H143.363H143.206C143.167 7.5532 143.128 7.5174 143.128 7.4816Z" fill="black"/>
<path d="M57.7487 34.9022C57.7487 34.5621 57.4939 34.2758 57.0432 34.2758H53.3788C53.3396 34.2758 53.3004 34.24 53.3004 34.2042V21.2098C53.3004 20.7802 53.3592 19.7242 52.9869 18.1491C52.7517 17.1647 52.4186 16.234 51.9679 15.3928C51.4388 14.3725 50.7726 13.4418 49.9692 12.6543L49.8712 12.5648L49.7732 12.4574C47.1474 9.9874 43.2674 8.7345 38.1921 8.6987C38.1333 8.6987 38.0941 8.6987 38.0353 8.6987C38.0353 8.6987 38.0353 8.6987 38.0157 8.6987H37.8786C37.4867 8.7166 36.3893 8.77029 35.1352 9.11037C34.2338 9.36095 33.4107 9.70102 32.6857 10.1306C31.8627 10.6317 31.1768 11.2582 30.6673 11.992V10.3454C30.6673 10.0232 30.3342 9.71892 29.9619 9.71892H19.1058C18.7531 9.71892 18.4004 10.0411 18.4004 10.3454V15.9297C18.4004 16.234 18.7531 16.5562 19.1058 16.5562H23.1818C23.2209 16.5562 23.2601 16.592 23.2601 16.6278V34.1863C23.2601 34.2221 23.2209 34.2579 23.1818 34.2579H19.243C18.8903 34.3116 18.5572 34.58 18.5572 34.8843V35.0096C18.5572 35.0096 18.5572 35.0096 18.5572 35.0275C18.5572 35.0812 18.5572 35.117 18.5572 35.1707C18.5572 35.296 18.5572 35.4392 18.5572 35.5645C18.5572 35.7613 18.5572 35.9403 18.5572 36.1372C18.5572 36.3699 18.5572 36.6026 18.5572 36.8353C18.5572 37.0858 18.5572 37.3543 18.5572 37.6049C18.5572 37.8555 18.5572 38.124 18.5572 38.3745C18.5572 38.6072 18.5572 38.8578 18.5572 39.0905C18.5572 39.2874 18.5572 39.4842 18.5572 39.6811C18.5572 39.8243 18.5572 39.9675 18.5572 40.1107C18.5572 40.2539 18.5572 40.3792 18.6355 40.5045C18.6747 40.5761 18.7335 40.6298 18.7923 40.7013C18.8707 40.7729 18.9687 40.8445 19.0666 40.8803C19.2234 40.9519 19.3998 40.9519 19.5565 40.9519C19.6545 40.9519 19.7721 40.9519 19.8701 40.9519C20.0072 40.9519 20.1444 40.9519 20.2816 40.9519C20.4579 40.9519 20.6147 40.9519 20.7911 40.9519C20.987 40.9519 21.183 40.9519 21.3789 40.9519C21.5945 40.9519 21.8101 40.9519 22.0452 40.9519C22.2803 40.9519 22.5155 40.9519 22.7702 40.9519C23.025 40.9519 23.2797 40.9519 23.5345 40.9519C23.8088 40.9519 24.0636 40.9519 24.3379 40.9519C24.6122 40.9519 24.8866 40.9519 25.1805 40.9519C25.4549 40.9519 25.7488 40.9519 26.0231 40.9519C26.3171 40.9519 26.5914 40.9519 26.8854 40.9519C27.1793 40.9519 27.4536 40.9519 27.7476 40.9519C28.0219 40.9519 28.3158 40.9519 28.5902 40.9519C28.8645 40.9519 29.1389 40.9519 29.4132 40.9519C29.6679 40.9519 29.9423 40.9519 30.197 40.9519C30.4518 40.9519 30.6869 40.9519 30.9417 40.9519C31.1768 40.9519 31.3924 40.9519 31.6275 40.9519C31.8431 40.9519 32.039 40.9519 32.2546 40.9519C32.431 40.9519 32.6073 40.9519 32.8033 40.9519C32.96 40.9519 33.0972 40.9519 33.254 40.9519C33.3715 40.9519 33.4891 40.9519 33.6067 40.9519C33.6851 40.9519 33.7635 40.9519 33.8614 40.9519C33.9006 40.9519 33.9398 40.9519 33.9986 40.9519H34.0182C34.3513 40.9519 34.7237 40.6298 34.7237 40.3255V40.2002C34.7237 40.2002 34.7237 40.2002 34.7237 40.1823V35.0633C34.7237 35.0633 34.7237 35.0633 34.7237 35.0454V34.9201C34.7237 34.5979 34.3709 34.2937 34.0182 34.2937H31.0201C30.9809 34.2937 30.9417 34.2579 30.9417 34.2221V21.2814C30.9417 21.2635 30.9417 21.2635 30.9417 21.2456C30.9417 21.2098 30.9417 21.174 30.9613 21.1024C30.9809 20.9234 31.0201 20.7444 31.0788 20.5655C31.1964 20.1717 31.412 19.5631 31.8823 18.9546C33.0776 17.3974 35.2331 16.5741 38.1333 16.5741C39.6814 16.5741 41.0531 16.8068 42.17 17.2542C43.0714 17.6122 43.8357 18.1133 44.4235 18.7577C45.4621 19.8853 45.6777 21.0666 45.6777 21.2635C45.6777 21.4604 45.6777 34.2221 45.6777 34.2221C45.6777 34.2579 45.6385 34.2937 45.5993 34.2937L42.2288 34.3116H42.0525C41.5822 34.3116 41.347 34.6158 41.347 34.938V40.3434C41.347 40.7192 41.6801 40.9698 42.0525 40.9698H57.2C57.3959 40.9698 57.5723 40.8803 57.6899 40.755C57.8075 40.6477 57.8662 40.4687 57.8662 40.3076V40.236C57.8662 40.2181 57.8662 40.1823 57.8662 40.1644V34.9022H57.7487ZM52.5558 21.3351V34.3474C52.5558 34.6695 52.9085 34.9738 53.2612 34.9738H56.9256C56.9648 34.9738 57.004 35.0096 57.004 35.0454V40.1644C57.004 40.2002 56.9648 40.236 56.9256 40.236H42.0721C42.0329 40.236 41.9937 40.2002 41.9937 40.1644V35.0275C41.9937 34.9917 42.0329 34.9559 42.0721 34.9559H45.6581C46.0108 34.938 46.3439 34.6337 46.3439 34.3295L46.3635 21.2814C46.3635 21.2814 46.3635 21.2635 46.3635 21.1382C46.3439 20.995 46.3439 20.995 46.3439 20.995C46.246 20.4402 45.9128 19.3305 44.9526 18.2565C44.2864 17.5406 43.4438 16.9678 42.4444 16.5562C41.249 16.0729 39.8381 15.8223 38.2117 15.8044H37.8982C36.2129 15.8223 34.7628 16.0908 33.5871 16.6278C32.6073 17.0752 31.8039 17.7017 31.216 18.4713C30.3734 19.581 30.1382 20.6907 30.1382 21.0666V34.2937C30.1382 34.6158 30.491 34.9201 30.8437 34.9201H33.8418C33.881 34.9201 33.9202 34.9559 33.9202 34.9917V40.1286C33.9202 40.1644 33.881 40.2002 33.8418 40.2002H19.3802C19.3606 40.2002 19.3606 40.2002 19.3606 40.2002C19.3606 40.2002 19.341 40.2002 19.341 40.1823C19.341 40.1644 19.3214 40.1644 19.3214 40.1644C19.3214 40.1644 19.3214 40.1465 19.3214 40.1286L19.3606 35.1528V35.0096C19.3606 34.9738 19.3998 34.938 19.439 34.938H23.3777C23.7304 34.938 24.0832 34.6158 24.0832 34.3116V16.4846C24.0832 16.1624 23.7304 15.8581 23.3777 15.8581H19.2626C19.2234 15.8581 19.1842 15.8223 19.1842 15.7865V10.4886C19.1842 10.4528 19.2234 10.417 19.2626 10.417H29.8443C29.8835 10.417 29.9227 10.4528 29.9227 10.4886C29.9227 10.5423 29.9227 10.6138 29.9227 10.6675C29.9227 10.8107 29.9227 10.9539 29.9227 11.0971C29.9227 11.2761 29.9227 11.4551 29.9227 11.6162C29.9227 11.7594 29.9227 11.9204 29.9227 12.0636C29.9227 12.1889 29.9031 12.3321 29.9815 12.4574C30.0011 12.5111 30.0403 12.5648 30.0795 12.6006C30.1187 12.6543 30.1774 12.6901 30.2362 12.7259C30.295 12.7617 30.3538 12.7796 30.4322 12.7796C30.5694 12.7975 30.7065 12.7975 30.8633 12.7796C30.9809 12.7796 31.0788 12.708 31.1572 12.6364C31.1964 12.5827 31.2356 12.5469 31.2748 12.4932C31.314 12.4395 31.3532 12.3858 31.3728 12.3321C31.5295 12.0994 31.7059 11.8846 31.9019 11.6878C32.0978 11.4909 32.3134 11.294 32.5485 11.115C32.7445 10.9539 32.96 10.8286 33.1756 10.6854C33.8222 10.2917 34.5669 9.9874 35.4095 9.75472C36.742 9.39674 37.859 9.37885 38.0353 9.37885H38.0549C43.0323 9.37885 46.8338 10.5959 49.3225 13.0123C50.1259 13.7819 50.7922 14.6768 51.3017 15.6791C51.7132 16.4846 52.0463 17.3616 52.2619 18.2744C52.5754 19.5989 52.5754 20.6549 52.5754 21.0129" fill="black"/>
<path d="M75.6982 10.6139C75.6982 10.2917 75.4043 9.9874 74.9928 9.9874H69.1337C69.0945 9.9874 69.0553 9.95161 69.0553 9.91581V1.09181C69.0553 0.769638 68.7026 0.465363 68.3498 0.465363H61.6481C61.2954 0.465363 60.9426 0.769638 60.9426 1.09181V9.91581C60.9426 9.95161 60.9035 9.9874 60.8643 9.9874H57.4154C57.0627 9.9874 56.71 10.3096 56.71 10.6139V16.1624V16.1803C56.71 16.4846 57.0627 16.8068 57.4154 16.8068H61.2954C61.3346 16.8068 61.3738 16.8426 61.3738 16.8784V40.6119C61.3738 40.9698 61.7265 41.2383 62.0792 41.2383H72.994C73.2488 41.2383 73.386 41.1309 73.5035 41.0056C73.6603 40.8445 73.6603 40.6298 73.6603 40.3792V35.117C73.6603 34.7948 73.4251 34.4906 72.9548 34.4906H69.6824C69.6432 34.4906 69.604 34.4548 69.604 34.419V16.8784C69.604 16.8426 69.6432 16.8068 69.6824 16.8068H74.9144H74.9732C75.3063 16.8068 75.6787 16.4846 75.6787 16.1803V16.055C75.6787 16.055 75.6787 16.055 75.6787 16.0371V10.757C75.6787 10.757 75.6787 10.757 75.6787 10.7391V10.6139H75.6982ZM69.5648 16.1445C69.1337 16.1445 68.8593 16.4488 68.8593 16.771V16.8963C68.8593 16.8963 68.8593 16.8963 68.8593 16.9142V34.4906C68.8593 34.4906 68.8593 34.4906 68.8593 34.5084V34.6337C68.8593 34.9559 69.2121 35.2602 69.5648 35.2602H72.8177C72.8569 35.2602 72.8961 35.296 72.8961 35.3318V40.4687C72.8961 40.5045 72.8569 40.5403 72.8177 40.5403H62.1968C62.1576 40.5403 62.1184 40.5045 62.1184 40.4687V16.7531C62.1184 16.4309 61.7657 16.1266 61.4129 16.1266H57.533C57.4938 16.1266 57.4546 16.0908 57.4546 16.055V10.7749C57.4546 10.7391 57.4938 10.7033 57.533 10.7033H57.7093L61.021 10.6854C61.3542 10.6854 61.7069 10.3633 61.7069 10.059V1.235C61.7069 1.1992 61.7461 1.16341 61.7853 1.16341H68.1931C68.2323 1.16341 68.2715 1.1992 68.2715 1.235V9.91581C68.2715 9.91581 68.2715 9.91581 68.2715 9.93371V10.059C68.2715 10.3633 68.6046 10.6854 68.9769 10.6854H74.8556C74.8948 10.6854 74.934 10.7212 74.934 10.757V16.055C74.934 16.0908 74.8948 16.1266 74.8556 16.1266H69.5648V16.1445Z" fill="black"/>
<path d="M94.8041 8.43024H94.4905C92.0802 8.44814 89.7288 8.8777 87.5144 9.73683C85.3393 10.5781 83.3797 11.7594 81.6945 13.2808C80.0093 14.8021 78.6767 16.5741 77.7557 18.5429C76.8152 20.5476 76.3253 22.6596 76.3057 24.8432V25.1296C76.384 34.1326 84.4967 41.4531 94.4905 41.5247H94.8041C94.8041 41.5426 95.921 41.4889 96.019 41.4889C96.4109 41.471 96.8224 41.4352 97.2143 41.3815C97.6063 41.3278 97.9982 41.2741 98.3901 41.2204C98.782 41.1488 99.1543 41.0772 99.5462 40.9877C99.9185 40.8983 100.291 40.8088 100.663 40.7014C101.036 40.594 101.388 40.4866 101.761 40.3613C102.113 40.236 102.466 40.1107 102.819 39.9675C103.171 39.8243 103.505 39.6812 103.838 39.5201C104.171 39.359 104.504 39.1979 104.817 39.0189C105.131 38.8399 105.445 38.6609 105.758 38.464C106.072 38.2672 106.366 38.0703 106.659 37.8555C106.953 37.6407 107.228 37.4259 107.522 37.1932C107.796 36.9606 108.07 36.7279 108.325 36.4952C108.58 36.2625 108.835 36.0119 109.089 35.7435C109.325 35.4929 109.56 35.2244 109.795 34.9559C110.01 34.6874 110.226 34.4011 110.441 34.1326C110.637 33.8462 110.833 33.5598 111.029 33.2556C111.206 32.9513 111.382 32.6649 111.558 32.3427C111.715 32.0385 111.872 31.7163 112.009 31.3941C112.088 31.233 112.146 31.0719 112.205 30.9108C112.244 30.8214 112.264 30.7319 112.303 30.6424C112.342 30.535 112.381 30.4276 112.401 30.3202C112.421 30.2665 112.421 30.2128 112.421 30.1591C112.421 29.8011 112.107 29.3716 111.735 29.3716C111.696 29.3716 111.637 29.3716 111.598 29.3716C111.48 29.3716 111.343 29.3716 111.225 29.3716C111.029 29.3716 110.833 29.3716 110.657 29.3716C110.422 29.3716 110.187 29.3716 109.932 29.3716C109.658 29.3716 109.383 29.3716 109.109 29.3716C108.815 29.3716 108.521 29.3716 108.247 29.3716C107.953 29.3716 107.659 29.3716 107.365 29.3716C107.091 29.3716 106.816 29.3716 106.542 29.3716C106.287 29.3716 106.052 29.3716 105.797 29.3716C105.601 29.3716 105.405 29.3716 105.19 29.3716C105.053 29.3716 104.915 29.3716 104.778 29.3716C104.602 29.3716 104.426 29.3895 104.288 29.479C104.112 29.5864 104.034 29.7474 103.916 29.9085C103.818 30.0517 103.701 30.1949 103.603 30.3202C103.367 30.5887 103.132 30.8572 102.858 31.0898C102.584 31.3404 102.309 31.5731 101.996 31.77C101.682 31.9848 101.369 32.1816 101.036 32.3606C100.702 32.5396 100.35 32.7186 99.9773 32.8618C99.605 33.0229 99.2327 33.1482 98.8408 33.2556C98.4489 33.3809 98.0374 33.4703 97.6258 33.5419C97.2143 33.6135 96.7832 33.6851 96.3717 33.7209C95.9406 33.7567 95.5095 33.7746 95.0588 33.7925H95.0392C94.8432 33.7925 94.6473 33.7925 94.4317 33.7746C94.2358 33.7567 94.0398 33.7567 93.8439 33.7209C93.6479 33.703 93.4519 33.6672 93.256 33.6493C93.06 33.6135 92.8641 33.5777 92.6877 33.5419C92.4918 33.5061 92.3154 33.4524 92.1194 33.3987C91.9431 33.3451 91.7471 33.2914 91.5708 33.2377C91.3944 33.184 91.218 33.1124 91.0221 33.0408C90.8457 32.9692 90.6694 32.8976 90.493 32.826C90.3166 32.7544 90.1599 32.6649 89.9835 32.5754C89.8267 32.4859 89.6504 32.3964 89.4936 32.3069C89.3368 32.2174 89.1801 32.11 89.0233 32.0206C88.8665 31.9132 88.7098 31.8058 88.5726 31.6984C88.4158 31.591 88.2787 31.4657 88.1415 31.3583C88.0043 31.233 87.8672 31.1256 87.73 31.0003C87.5928 30.875 87.4752 30.7498 87.3381 30.6066C87.2205 30.4813 87.0833 30.3381 86.9658 30.1949C86.8482 30.0517 86.7306 29.9085 86.6326 29.7653C86.5151 29.6222 86.4171 29.4611 86.3191 29.3179C86.2211 29.1568 86.1231 29.0136 86.0448 28.8525C85.9468 28.6914 85.8684 28.5303 85.79 28.3692C85.7508 28.2798 85.692 28.2082 85.692 28.1187C85.692 28.1008 85.692 28.065 85.7116 28.0471C85.7312 28.0113 85.7704 28.0113 85.8096 28.0113C85.8292 28.0113 85.8488 28.0113 85.8488 28.0113C85.8684 28.0113 85.888 28.0113 85.9076 28.0113C85.9272 28.0113 85.9664 28.0113 85.986 28.0113C86.0252 28.0113 86.0448 28.0113 86.0839 28.0113C86.1231 28.0113 86.1623 28.0113 86.2015 28.0113C86.2407 28.0113 86.2799 28.0113 86.3191 28.0113C86.3583 28.0113 86.4171 28.0113 86.4563 28.0113C86.5151 28.0113 86.5542 28.0113 86.613 28.0113C86.6718 28.0113 86.7306 28.0113 86.7698 28.0113C86.8286 28.0113 86.8874 28.0113 86.9462 28.0113C87.0049 28.0113 87.0833 28.0113 87.1421 28.0113C87.2009 28.0113 87.2793 28.0113 87.3381 28.0113C87.4165 28.0113 87.4752 28.0113 87.5536 28.0113C87.632 28.0113 87.7104 28.0113 87.7888 28.0113C87.8672 28.0113 87.9455 28.0113 88.0239 28.0113C88.1023 28.0113 88.2003 28.0113 88.2787 28.0113C88.3571 28.0113 88.455 28.0113 88.5334 28.0113C88.6314 28.0113 88.7098 28.0113 88.8078 28.0113C88.9057 28.0113 89.0037 28.0113 89.0821 28.0113C89.1801 28.0113 89.2781 28.0113 89.376 28.0113C89.474 28.0113 89.572 28.0113 89.67 28.0113C89.7679 28.0113 89.8855 28.0113 89.9835 28.0113C90.0815 28.0113 90.1991 28.0113 90.297 28.0113C90.4146 28.0113 90.5126 28.0113 90.6302 28.0113C90.7477 28.0113 90.8457 28.0113 90.9633 28.0113C91.0809 28.0113 91.1984 28.0113 91.2964 28.0113C91.414 28.0113 91.5316 28.0113 91.6491 28.0113C91.7667 28.0113 91.8843 28.0113 92.0019 28.0113C92.1194 28.0113 92.237 28.0113 92.3546 28.0113C92.4722 28.0113 92.6093 28.0113 92.7269 28.0113C92.8445 28.0113 92.9817 28.0113 93.0992 28.0113C93.2168 28.0113 93.354 28.0113 93.4715 28.0113C93.6087 28.0113 93.7263 28.0113 93.8635 28.0113C94.0006 28.0113 94.1182 28.0113 94.2554 28.0113C94.3925 28.0113 94.5101 28.0113 94.6473 28.0113C94.7845 28.0113 94.902 28.0113 95.0392 28.0113C95.1764 28.0113 95.3135 28.0113 95.4311 28.0113C95.5683 28.0113 95.7055 28.0113 95.8426 28.0113C95.9798 28.0113 96.117 28.0113 96.2541 28.0113C96.3913 28.0113 96.5285 28.0113 96.6657 28.0113C96.8028 28.0113 96.94 28.0113 97.0772 28.0113C97.2143 28.0113 97.3515 28.0113 97.4887 28.0113C97.6258 28.0113 97.763 28.0113 97.9002 28.0113C98.0374 28.0113 98.1745 28.0113 98.3117 28.0113C98.4489 28.0113 98.586 28.0113 98.7232 28.0113C98.8604 28.0113 98.9975 28.0113 99.1347 28.0113C99.2719 28.0113 99.4091 28.0113 99.5462 28.0113C99.6834 28.0113 99.8206 28.0113 99.9577 28.0113C100.095 28.0113 100.232 28.0113 100.369 28.0113C100.506 28.0113 100.644 28.0113 100.781 28.0113C100.918 28.0113 101.055 28.0113 101.192 28.0113C101.329 28.0113 101.467 28.0113 101.604 28.0113C101.741 28.0113 101.878 28.0113 102.015 28.0113C102.152 28.0113 102.29 28.0113 102.427 28.0113C102.564 28.0113 102.701 28.0113 102.819 28.0113C102.956 28.0113 103.073 28.0113 103.211 28.0113C103.348 28.0113 103.465 28.0113 103.603 28.0113C103.74 28.0113 103.857 28.0113 103.994 28.0113C104.132 28.0113 104.249 28.0113 104.386 28.0113C104.504 28.0113 104.641 28.0113 104.759 28.0113C104.876 28.0113 105.013 28.0113 105.131 28.0113C105.249 28.0113 105.366 28.0113 105.503 28.0113C105.621 28.0113 105.738 28.0113 105.856 28.0113C105.974 28.0113 106.091 28.0113 106.209 28.0113C106.326 28.0113 106.444 28.0113 106.562 28.0113C106.679 28.0113 106.797 28.0113 106.895 28.0113C107.012 28.0113 107.11 28.0113 107.228 28.0113C107.345 28.0113 107.443 28.0113 107.561 28.0113C107.659 28.0113 107.776 28.0113 107.874 28.0113C107.972 28.0113 108.09 28.0113 108.188 28.0113C108.286 28.0113 108.384 28.0113 108.482 28.0113C108.58 28.0113 108.678 28.0113 108.776 28.0113C108.874 28.0113 108.972 28.0113 109.05 28.0113C109.148 28.0113 109.227 28.0113 109.325 28.0113C109.403 28.0113 109.501 28.0113 109.579 28.0113C109.658 28.0113 109.736 28.0113 109.834 28.0113C109.912 28.0113 109.991 28.0113 110.069 28.0113C110.148 28.0113 110.226 28.0113 110.304 28.0113C110.383 28.0113 110.441 28.0113 110.52 28.0113C110.579 28.0113 110.657 28.0113 110.716 28.0113C110.775 28.0113 110.833 28.0113 110.912 28.0113C110.971 28.0113 111.029 28.0113 111.088 28.0113C111.147 28.0113 111.206 28.0113 111.245 28.0113C111.304 28.0113 111.343 28.0113 111.402 28.0113C111.441 28.0113 111.5 28.0113 111.539 28.0113C111.578 28.0113 111.617 28.0113 111.656 28.0113C111.696 28.0113 111.735 28.0113 111.774 28.0113C111.813 28.0113 111.833 28.0113 111.872 28.0113C111.892 28.0113 111.931 28.0113 111.95 28.0113C112.029 28.0113 112.107 28.0113 112.185 27.9934C112.244 27.9755 112.323 27.9576 112.381 27.9218C112.499 27.8681 112.597 27.7786 112.675 27.6891C112.754 27.5996 112.773 27.4922 112.793 27.3669C112.793 27.3669 112.793 27.3669 112.793 27.349C112.911 26.6152 112.969 25.8634 112.969 25.1117V24.8253C112.891 15.8223 104.778 8.50183 94.8041 8.43024ZM104.641 30.1054C104.661 30.0875 104.7 30.0696 104.72 30.0696C104.759 30.0696 104.817 30.0696 104.857 30.0696C104.994 30.0696 105.111 30.0696 105.249 30.0696C105.445 30.0696 105.641 30.0696 105.836 30.0696C106.072 30.0696 106.326 30.0696 106.562 30.0696C106.836 30.0696 107.11 30.0696 107.385 30.0696C107.678 30.0696 107.953 30.0696 108.247 30.0696C108.541 30.0696 108.815 30.0696 109.109 30.0696C109.383 30.0696 109.638 30.0696 109.912 30.0696C110.148 30.0696 110.383 30.0696 110.618 30.0696C110.794 30.0696 110.99 30.0696 111.167 30.0696C111.284 30.0696 111.402 30.0696 111.519 30.0696C111.558 30.0696 111.617 30.0696 111.637 30.0875C111.676 30.1054 111.676 30.1412 111.676 30.1949C111.676 30.2486 111.637 30.2844 111.637 30.3381C111.617 30.3739 111.598 30.4276 111.598 30.4634C111.558 30.5529 111.539 30.6245 111.5 30.714C111.441 30.8751 111.362 31.0361 111.304 31.1972C111.167 31.5194 111.01 31.8237 110.853 32.1279C110.696 32.4322 110.52 32.7365 110.324 33.0229C110.148 33.3093 109.952 33.5956 109.736 33.882C109.52 34.1684 109.305 34.4369 109.089 34.7053C108.854 34.9738 108.619 35.2244 108.384 35.475C108.129 35.7256 107.874 35.9761 107.62 36.2088C107.365 36.4415 107.091 36.6742 106.797 36.889C106.522 37.1038 106.228 37.3185 105.934 37.5333C105.641 37.7302 105.327 37.9271 105.013 38.124C104.7 38.3209 104.386 38.4819 104.053 38.6609C103.72 38.8399 103.387 39.001 103.054 39.1442C102.721 39.3053 102.368 39.4306 102.015 39.5738C101.663 39.699 101.31 39.8243 100.938 39.9496C100.565 40.057 100.212 40.1644 99.8402 40.2539C99.4678 40.3434 99.0955 40.4329 98.7036 40.5045C98.3117 40.5761 97.9394 40.6477 97.5475 40.7014C97.1555 40.7551 96.7636 40.7909 96.3521 40.8267C95.9602 40.8625 95.5487 40.8804 95.1372 40.8804C94.9804 40.8804 94.8237 40.8804 94.6473 40.8804C84.967 40.8804 77.0699 33.7746 77.0699 25.0401C77.0699 16.3056 84.9474 9.19988 94.6473 9.19988C97.038 9.19988 99.3503 9.62944 101.545 10.4707C103.661 11.2761 105.543 12.4395 107.149 13.9251C108.737 15.3749 109.991 17.0574 110.853 18.9367C111.735 20.8518 112.185 22.8923 112.205 24.9864V25.1296C112.205 25.8634 112.146 26.6152 112.029 27.3311C112.029 27.349 112.009 27.3669 111.99 27.3848C111.97 27.4027 111.95 27.4027 111.931 27.4027H111.911C111.892 27.4027 111.872 27.4027 111.872 27.4027C111.852 27.4027 111.813 27.4027 111.794 27.4027C111.754 27.4027 111.715 27.4027 111.696 27.4027C111.656 27.4027 111.598 27.4027 111.558 27.4027C111.5 27.4027 111.46 27.4027 111.402 27.4027C111.343 27.4027 111.284 27.4027 111.206 27.4027C111.127 27.4027 111.069 27.4027 110.99 27.4027C110.912 27.4027 110.833 27.4027 110.755 27.4027C110.677 27.4027 110.579 27.4027 110.5 27.4027C110.402 27.4027 110.304 27.4027 110.226 27.4027C110.128 27.4027 110.03 27.4027 109.912 27.4027C109.795 27.4027 109.697 27.4027 109.579 27.4027C109.462 27.4027 109.344 27.4027 109.227 27.4027C109.109 27.4027 108.991 27.4027 108.854 27.4027C108.717 27.4027 108.599 27.4027 108.462 27.4027C108.325 27.4027 108.188 27.4027 108.07 27.4027C107.933 27.4027 107.796 27.4027 107.659 27.4027C107.522 27.4027 107.365 27.4027 107.228 27.4027C107.071 27.4027 106.934 27.4027 106.777 27.4027C106.62 27.4027 106.464 27.4027 106.307 27.4027C106.15 27.4027 105.993 27.4027 105.836 27.4027C105.68 27.4027 105.503 27.4027 105.347 27.4027C105.19 27.4027 105.013 27.4027 104.857 27.4027C104.68 27.4027 104.524 27.4027 104.347 27.4027C104.171 27.4027 103.994 27.4027 103.838 27.4027C103.661 27.4027 103.485 27.4027 103.309 27.4027C103.132 27.4027 102.956 27.4027 102.78 27.4027C102.603 27.4027 102.427 27.4027 102.25 27.4027C102.074 27.4027 101.878 27.4027 101.702 27.4027C101.525 27.4027 101.329 27.4027 101.153 27.4027C100.977 27.4027 100.781 27.4027 100.604 27.4027C100.428 27.4027 100.232 27.4027 100.056 27.4027C99.8794 27.4027 99.6834 27.4027 99.507 27.4027C99.3111 27.4027 99.1347 27.4027 98.9388 27.4027C98.7428 27.4027 98.5664 27.4027 98.3705 27.4027C98.1745 27.4027 97.9982 27.4027 97.8022 27.4027C97.6258 27.4027 97.4299 27.4027 97.2535 27.4027C97.0772 27.4027 96.8812 27.4027 96.7048 27.4027C96.5285 27.4027 96.3325 27.4027 96.1562 27.4027C95.9798 27.4027 95.7838 27.4027 95.6075 27.4027C95.4311 27.4027 95.2548 27.4027 95.0588 27.4027C94.8824 27.4027 94.7061 27.4027 94.5297 27.4027C94.3534 27.4027 94.177 27.4027 94.0006 27.4027C93.8243 27.4027 93.6479 27.4027 93.4715 27.4027C93.2952 27.4027 93.1384 27.4027 92.9621 27.4027C92.7857 27.4027 92.6289 27.4027 92.4526 27.4027C92.2958 27.4027 92.1194 27.4027 91.9627 27.4027C91.8059 27.4027 91.6491 27.4027 91.4728 27.4027C91.316 27.4027 91.1592 27.4027 91.0025 27.4027C90.8457 27.4027 90.6889 27.4027 90.5518 27.4027C90.395 27.4027 90.2578 27.4027 90.1011 27.4027C89.9639 27.4027 89.8071 27.4027 89.67 27.4027C89.5328 27.4027 89.3956 27.4027 89.2585 27.4027C89.1213 27.4027 89.0037 27.4027 88.8665 27.4027C88.749 27.4027 88.6118 27.4027 88.4942 27.4027C88.3767 27.4027 88.2591 27.4027 88.1415 27.4027C88.0239 27.4027 87.9064 27.4027 87.8084 27.4027C87.7104 27.4027 87.5928 27.4027 87.4948 27.4027C87.3969 27.4027 87.2989 27.4027 87.2009 27.4027C87.1029 27.4027 87.0245 27.4027 86.9266 27.4027C86.8482 27.4027 86.7502 27.4027 86.6718 27.4027C86.5934 27.4027 86.5151 27.4027 86.4367 27.4027C86.3779 27.4027 86.2995 27.4027 86.2407 27.4027C86.1819 27.4027 86.1231 27.4027 86.0644 27.4027C86.0056 27.4027 85.9664 27.4027 85.9076 27.4027C85.8096 27.4027 85.7116 27.4027 85.5941 27.4206C85.4961 27.4385 85.3981 27.4564 85.3197 27.5101C85.1629 27.5996 85.0258 27.7249 84.9474 27.886C84.8886 28.0113 84.869 28.1545 84.869 28.2798C84.869 28.3514 84.8886 28.4229 84.9082 28.4766C84.9278 28.5303 84.967 28.584 84.9866 28.6556C85.0454 28.763 85.0846 28.8704 85.1434 28.9778C85.2021 29.0852 85.2609 29.1926 85.3197 29.3C85.4569 29.5327 85.5941 29.7653 85.7508 29.9801C85.9076 30.1949 86.0644 30.4276 86.2407 30.6245C86.4171 30.8393 86.5934 31.0361 86.7894 31.233C86.9853 31.4299 87.1813 31.6268 87.3969 31.8058C87.6124 31.9848 87.828 32.1637 88.0435 32.3248C88.2787 32.4859 88.5138 32.647 88.749 32.8081C88.8078 32.8439 88.847 32.8797 88.9057 32.9155C90.6498 33.9715 92.7073 34.5443 94.8237 34.5622H95.1372C99.2327 34.4727 102.858 32.7902 104.641 30.1054Z" fill="black"/>
<path d="M85.2414 21.4067C85.3002 21.5499 85.3982 21.6752 85.5354 21.7647C85.6333 21.8362 85.7509 21.8899 85.8881 21.9078H86.0253C86.0253 21.9078 86.0253 21.9078 86.0448 21.9078H86.0644C86.084 21.9078 86.1036 21.9078 86.1232 21.9078C86.1624 21.9078 86.2016 21.9078 86.2212 21.9078C86.2604 21.9078 86.3192 21.9078 86.3584 21.9078C86.4172 21.9078 86.476 21.9078 86.5347 21.9078C86.6131 21.9078 86.6719 21.9078 86.7503 21.9078C86.8287 21.9078 86.9071 21.9078 87.005 21.9078C87.103 21.9078 87.1814 21.9078 87.2794 21.9078C87.3774 21.9078 87.4753 21.9078 87.5929 21.9078C87.7105 21.9078 87.8085 21.9078 87.926 21.9078C88.0436 21.9078 88.1612 21.9078 88.2788 21.9078C88.4159 21.9078 88.5335 21.9078 88.6707 21.9078C88.8078 21.9078 88.945 21.9078 89.0822 21.9078C89.2194 21.9078 89.3761 21.9078 89.5133 21.9078C89.6701 21.9078 89.8072 21.9078 89.964 21.9078C90.1208 21.9078 90.2775 21.9078 90.4343 21.9078C90.5911 21.9078 90.7478 21.9078 90.9242 21.9078C91.081 21.9078 91.2573 21.9078 91.4141 21.9078C91.5904 21.9078 91.7472 21.9078 91.9236 21.9078C92.0999 21.9078 92.2763 21.9078 92.4331 21.9078C92.6094 21.9078 92.7858 21.9078 92.9621 21.9078C93.1385 21.9078 93.3149 21.9078 93.4912 21.9078C93.6676 21.9078 93.844 21.9078 94.0203 21.9078C94.1967 21.9078 94.373 21.9078 94.569 21.9078C94.7454 21.9078 94.9217 21.9078 95.1177 21.9078C95.294 21.9078 95.4704 21.9078 95.6664 21.9078C95.8427 21.9078 96.0191 21.9078 96.215 21.9078C96.3914 21.9078 96.5678 21.9078 96.7441 21.9078C96.9205 21.9078 97.0969 21.9078 97.2732 21.9078C97.4496 21.9078 97.6259 21.9078 97.8023 21.9078C97.9787 21.9078 98.1354 21.9078 98.3118 21.9078C98.4882 21.9078 98.6449 21.9078 98.8213 21.9078C98.978 21.9078 99.1544 21.9078 99.3112 21.9078C99.4679 21.9078 99.6247 21.9078 99.7815 21.9078C99.9382 21.9078 100.095 21.9078 100.232 21.9078C100.389 21.9078 100.526 21.9078 100.683 21.9078C100.82 21.9078 100.957 21.9078 101.114 21.9078C101.251 21.9078 101.388 21.9078 101.506 21.9078C101.623 21.9078 101.761 21.9078 101.878 21.9078C101.996 21.9078 102.113 21.9078 102.231 21.9078C102.349 21.9078 102.447 21.9078 102.564 21.9078C102.662 21.9078 102.76 21.9078 102.858 21.9078C102.956 21.9078 103.034 21.9078 103.132 21.9078C103.211 21.9078 103.289 21.9078 103.367 21.9078C103.426 21.9078 103.505 21.9078 103.563 21.9078C103.622 21.9078 103.681 21.9078 103.72 21.9078C103.759 21.9078 103.799 21.9078 103.838 21.9078C103.857 21.9078 103.897 21.9078 103.916 21.9078C103.936 21.9078 103.955 21.9078 103.955 21.9078C104.073 21.9078 104.191 21.9078 104.308 21.8541C104.406 21.8005 104.504 21.7289 104.582 21.6573L104.68 21.5499L104.739 21.4246C104.798 21.3172 104.818 21.174 104.798 21.0487C104.778 20.9234 104.72 20.7981 104.641 20.6907C104.641 20.6728 104.622 20.6728 104.622 20.6549C102.721 17.3258 99.0172 15.178 95.1177 15.1243H94.8041C94.8041 15.1064 93.7264 15.1959 93.6284 15.1959C93.2365 15.2496 92.8446 15.3212 92.4723 15.3928C92.0999 15.4823 91.708 15.5896 91.3553 15.7149C90.983 15.8402 90.6303 15.9834 90.2775 16.1445C89.9248 16.3056 89.5721 16.4846 89.239 16.6815C88.9058 16.8783 88.5727 17.0931 88.2788 17.3258C87.9652 17.5585 87.6713 17.8091 87.3774 18.0597C87.0834 18.3281 86.8091 18.5966 86.5543 18.883C86.2996 19.1694 86.0644 19.4736 85.8293 19.7958C85.6137 20.118 85.3982 20.4402 85.2022 20.7802C85.1434 20.995 85.1434 21.2098 85.2414 21.4067ZM95.0001 15.8223C96.8225 15.8223 98.6449 16.3235 100.252 17.2542C100.507 17.3974 100.742 17.5406 100.977 17.7017C101.212 17.8628 101.428 18.0418 101.663 18.2028C101.878 18.3818 102.094 18.5608 102.29 18.7577C102.486 18.9546 102.682 19.1515 102.878 19.3662C103.054 19.581 103.23 19.7958 103.407 20.0106C103.563 20.2254 103.72 20.4581 103.877 20.6907C103.916 20.7623 103.975 20.8339 104.014 20.9234C104.034 20.9592 104.053 20.995 104.073 21.0308C104.093 21.0666 104.112 21.1024 104.093 21.1561C104.053 21.2098 104.014 21.1919 103.975 21.1919C103.916 21.1919 103.877 21.1919 103.818 21.1919C103.74 21.1919 103.642 21.1919 103.563 21.1919C103.446 21.1919 103.328 21.1919 103.23 21.1919C103.093 21.1919 102.956 21.1919 102.799 21.1919C102.642 21.1919 102.466 21.1919 102.309 21.1919C102.113 21.1919 101.937 21.1919 101.741 21.1919C101.525 21.1919 101.33 21.1919 101.114 21.1919C100.879 21.1919 100.663 21.1919 100.428 21.1919C100.193 21.1919 99.9382 21.1919 99.7031 21.1919C99.4483 21.1919 99.1936 21.1919 98.9389 21.1919C98.6645 21.1919 98.4098 21.1919 98.1354 21.1919C97.8611 21.1919 97.5867 21.1919 97.3124 21.1919C97.0381 21.1919 96.7441 21.1919 96.4698 21.1919C96.1759 21.1919 95.9015 21.1919 95.6076 21.1919C95.3136 21.1919 95.0393 21.1919 94.7454 21.1919C94.4514 21.1919 94.1771 21.1919 93.8832 21.1919C93.6088 21.1919 93.3149 21.1919 93.0405 21.1919C92.7662 21.1919 92.4919 21.1919 92.2175 21.1919C91.9432 21.1919 91.6884 21.1919 91.4141 21.1919C91.1593 21.1919 90.9046 21.1919 90.6303 21.1919C90.3755 21.1919 90.1404 21.1919 89.8856 21.1919C89.6505 21.1919 89.4153 21.1919 89.1802 21.1919C88.9646 21.1919 88.7491 21.1919 88.5335 21.1919C88.3375 21.1919 88.1416 21.1919 87.9456 21.1919C87.7693 21.1919 87.5929 21.1919 87.4166 21.1919C87.2598 21.1919 87.1226 21.1919 86.9658 21.1919C86.8483 21.1919 86.7111 21.1919 86.5935 21.1919C86.4955 21.1919 86.3976 21.1919 86.2996 21.1919C86.2604 21.1919 86.2408 21.1919 86.2016 21.1919C86.1428 21.1919 86.0644 21.2098 86.0057 21.1919C85.9665 21.1919 85.9273 21.174 85.9273 21.1382C85.9077 21.0845 85.9273 21.0487 85.9469 21.0129C85.9665 20.9771 85.9861 20.9234 86.0253 20.8876C86.0644 20.7981 86.1232 20.7265 86.182 20.637C86.28 20.476 86.3976 20.3149 86.4955 20.1538C86.7111 19.8316 86.9658 19.5452 87.2206 19.241C87.4753 18.9546 87.7497 18.6861 88.0436 18.4176C88.3375 18.167 88.6315 17.9165 88.945 17.7017C89.2586 17.4869 89.5917 17.2721 89.9248 17.0931C90.2579 16.9141 90.6107 16.7352 90.983 16.592C91.3357 16.4488 91.708 16.3056 92.0803 16.1982C92.4527 16.0908 92.8446 16.0013 93.2169 15.9297C93.6088 15.8581 94.0007 15.8223 94.3926 15.8044C94.6278 15.8223 94.8237 15.8223 95.0001 15.8223Z" fill="black"/>
<path d="M134.995 8.7524H134.858C134.368 8.71661 133.878 8.71661 133.388 8.7345C132.957 8.7524 132.506 8.7703 132.075 8.824C131.683 8.87769 131.291 8.93139 130.919 9.02088C130.566 9.09248 130.233 9.18197 129.9 9.28936C129.606 9.37885 129.312 9.48624 129.018 9.59364C128.764 9.70103 128.509 9.80842 128.274 9.93371C128.058 10.0411 127.862 10.1485 127.666 10.2738C127.49 10.3812 127.333 10.4886 127.176 10.596C127.098 10.6497 127.019 10.7212 126.941 10.7749C126.882 10.8286 126.804 10.8823 126.706 10.8823C126.628 10.8823 126.569 10.8465 126.51 10.8107C126.432 10.757 126.373 10.6676 126.314 10.6139C126.255 10.5602 126.216 10.5244 126.157 10.4707C126.04 10.3633 125.903 10.2738 125.765 10.1843C125.432 9.9874 125.04 9.86211 124.629 9.80842C124.609 9.80842 124.374 9.79052 124.374 9.79052H114.831C114.459 9.79052 114.125 10.0948 114.125 10.417V15.8581V16.0013C114.125 16.3235 114.459 16.6278 114.831 16.6278H118.828C118.868 16.6278 118.907 16.6636 118.907 16.6994V34.3295C118.907 34.3653 118.868 34.4011 118.828 34.4011C118.789 34.4011 118.75 34.4011 118.711 34.4011C118.613 34.4011 118.495 34.4011 118.397 34.4011C118.241 34.4011 118.084 34.4011 117.927 34.4011C117.731 34.4011 117.555 34.4011 117.359 34.4011C117.163 34.4011 116.947 34.4011 116.751 34.4011C116.555 34.4011 116.34 34.4011 116.144 34.4011C115.967 34.4011 115.791 34.4011 115.595 34.4011C115.497 34.4011 115.38 34.4011 115.282 34.4011C115.203 34.4011 115.105 34.4011 115.027 34.4011C114.851 34.4011 114.655 34.4548 114.498 34.5442C114.282 34.6695 114.125 34.9022 114.145 35.1528C114.145 35.2244 114.145 35.3139 114.145 35.3855C114.145 35.6361 114.145 35.8866 114.145 36.1372C114.145 36.4773 114.145 36.7995 114.145 37.1395C114.145 37.4975 114.145 37.8555 114.145 38.2135C114.145 38.5535 114.145 38.8757 114.145 39.2158C114.145 39.4664 114.145 39.7169 114.145 39.9675C114.145 40.0749 114.145 40.2002 114.145 40.3076V40.4508C114.145 40.773 114.498 41.0772 114.851 41.0772H130.468C130.723 41.0593 130.958 40.8445 131.076 40.6298C131.193 40.415 131.174 40.2002 131.174 39.9675C131.174 39.8243 131.174 39.6811 131.174 39.538C131.174 39.3411 131.174 39.1263 131.174 38.9294C131.174 38.6788 131.174 38.4461 131.174 38.1956C131.174 37.9271 131.174 37.6765 131.174 37.408C131.174 37.1574 131.174 36.889 131.174 36.6384C131.174 36.4057 131.174 36.173 131.174 35.9403C131.174 35.7614 131.174 35.5824 131.174 35.3855C131.174 35.2781 131.174 35.1528 131.174 35.0454C131.174 35.0275 131.174 34.9917 131.174 34.9738C131.174 34.6695 130.821 34.3474 130.468 34.3474H126.98C126.941 34.3474 126.902 34.3116 126.902 34.2758V21.4067C126.902 21.2993 126.902 21.2098 126.922 21.1024C127 20.6729 127.255 19.5631 128.176 18.4713C128.783 17.7554 129.587 17.1647 130.547 16.7531C131.722 16.234 133.173 15.9297 134.838 15.8939C134.858 15.8939 134.877 15.8939 134.877 15.8939H134.995C135.328 15.876 135.681 15.5718 135.681 15.2675V9.37885C135.642 9.07458 135.367 8.7882 134.995 8.7524ZM125.824 11.2403C125.961 11.4014 126.098 11.5446 126.314 11.6162C126.51 11.6878 126.726 11.6699 126.902 11.5983C127 11.5625 127.098 11.5088 127.196 11.4372C127.274 11.3835 127.353 11.294 127.431 11.2403C127.627 11.0971 127.823 10.9539 128.038 10.8107C128.058 10.7928 128.078 10.7928 128.078 10.7749C128.43 10.5602 128.783 10.3812 129.175 10.238C129.587 10.0769 129.998 9.93371 130.429 9.82632C130.762 9.73682 131.115 9.66523 131.468 9.61153C132.82 9.37885 134.015 9.39675 134.583 9.43255L134.74 9.45045H134.76C134.799 9.45045 134.838 9.48624 134.838 9.52204V15.1422C134.838 15.1601 134.838 15.2138 134.76 15.2138H134.583C132.839 15.2675 131.311 15.6076 130.037 16.1982C128.979 16.6994 128.097 17.3616 127.431 18.2029C126.902 18.8472 126.51 19.5989 126.275 20.3686C126.236 20.4939 126.196 20.6192 126.177 20.7444C126.138 20.8876 126.118 21.0487 126.098 21.2098C126.079 21.3709 126.079 21.532 126.079 21.6931C126.079 21.8005 126.079 21.9079 126.079 22.0152C126.079 22.3195 126.079 22.6238 126.079 22.9102C126.079 23.3039 126.079 23.6977 126.079 24.1094C126.079 24.5747 126.079 25.0401 126.079 25.5055C126.079 26.0066 126.079 26.5257 126.079 27.0268C126.079 27.5459 126.079 28.0829 126.079 28.6019C126.079 29.121 126.079 29.6221 126.079 30.1412C126.079 30.6066 126.079 31.0898 126.079 31.5552C126.079 31.9669 126.079 32.3606 126.079 32.7723C126.079 33.0766 126.079 33.3987 126.079 33.703C126.079 33.882 126.079 34.0789 126.079 34.2579V34.3832C126.079 34.6874 126.432 35.0096 126.784 35.0096H130.272C130.312 35.0096 130.351 35.0454 130.351 35.0812V40.2002C130.351 40.236 130.312 40.2718 130.272 40.2718H115.125H114.968C114.929 40.2718 114.89 40.236 114.89 40.2002C114.89 40.1823 114.89 40.1465 114.89 40.1286C114.89 40.057 114.89 40.0033 114.89 39.9317C114.89 39.8243 114.89 39.7348 114.89 39.6274C114.89 39.5022 114.89 39.359 114.89 39.2337C114.89 39.0726 114.89 38.9294 114.89 38.7683C114.89 38.6072 114.89 38.4282 114.89 38.2672C114.89 38.0882 114.89 37.9092 114.89 37.7302C114.89 37.5512 114.89 37.3722 114.89 37.1932C114.89 37.0143 114.89 36.8532 114.89 36.6742C114.89 36.5131 114.89 36.352 114.89 36.1909C114.89 36.0477 114.89 35.9045 114.89 35.7792C114.89 35.6719 114.89 35.5466 114.89 35.4392C114.89 35.3497 114.89 35.2781 114.89 35.1886C114.89 35.1349 114.89 35.0812 114.89 35.0275C114.89 34.9917 114.909 34.9559 114.929 34.938C114.949 34.9201 114.968 34.9201 115.007 34.9201C115.164 34.9201 115.321 34.9201 115.478 34.9201C115.615 34.9201 115.752 34.9201 115.909 34.9201C116.085 34.9201 116.261 34.9201 116.438 34.9201C116.634 34.9201 116.83 34.9201 117.026 34.9201C117.222 34.9201 117.418 34.9201 117.614 34.9201C117.79 34.9201 117.986 34.9201 118.162 34.9201C118.319 34.9201 118.456 34.9201 118.613 34.9201C118.711 34.9201 118.809 34.9201 118.907 34.9201C118.926 34.9201 118.966 34.9201 118.985 34.9201C119.318 34.9201 119.691 34.5979 119.691 34.2937V16.5383C119.691 16.2161 119.338 15.9118 118.985 15.9118H114.988C114.949 15.9118 114.909 15.876 114.909 15.8402V10.5423C114.909 10.5065 114.949 10.4707 114.988 10.4707H124.217C124.609 10.4707 125.001 10.5781 125.334 10.7749C125.511 10.8823 125.667 11.0076 125.805 11.1508C125.765 11.1687 125.805 11.2045 125.824 11.2403Z" fill="black"/>
<path d="M182.691 21.5857C182.182 20.4939 181.456 19.5094 180.516 18.6503C179.595 17.8091 178.498 17.1468 177.302 16.6815C176.107 16.2161 174.833 15.9655 173.52 15.9476H173.207C171.894 15.9655 170.64 16.2161 169.425 16.6815C168.229 17.1468 167.132 17.8091 166.211 18.6503C165.29 19.4915 164.545 20.476 164.036 21.5857C163.526 22.6775 163.252 23.8409 163.232 25.0222V25.3086C163.311 30.2665 167.739 34.2937 173.187 34.3832H173.501C178.948 34.3116 183.377 30.2844 183.455 25.3086V25.0222C183.455 23.8409 183.2 22.6775 182.691 21.5857ZM182.711 25.0938V25.2191C182.711 26.3467 182.456 27.4206 181.966 28.4587C181.496 29.479 180.81 30.3739 179.967 31.1614C179.105 31.949 178.106 32.5575 176.989 32.9871C175.832 33.4345 174.618 33.6672 173.363 33.6672C168.21 33.6672 164.016 29.8548 164.016 25.1475C164.016 20.4581 168.21 16.6457 173.363 16.6457C174.637 16.6457 175.872 16.8784 177.028 17.3258C178.145 17.7554 179.144 18.3818 180.006 19.1694C181.75 20.7623 182.711 22.8565 182.711 25.0938Z" fill="black"/>
<path d="M194.253 34.0073C194.253 33.6851 193.9 33.3808 193.547 33.3808H190.451C190.412 33.3808 190.373 33.3451 190.373 33.3093V10.4349C190.373 10.1127 190.02 9.80843 189.668 9.80843H184.357C184.024 9.80843 183.71 10.0948 183.671 10.3991L183.652 10.5244V10.5423C183.632 10.8465 183.593 11.1508 183.573 11.4551C183.573 11.4909 183.573 11.5088 183.573 11.5446C183.573 11.5804 183.554 11.5983 183.514 11.6162C183.475 11.6341 183.436 11.6341 183.397 11.6162C183.358 11.5983 183.338 11.5804 183.299 11.5625C183.181 11.473 183.044 11.4193 182.927 11.3477C182.789 11.2761 182.652 11.2045 182.515 11.115C182.241 10.9718 181.966 10.8286 181.692 10.7034C181.143 10.4349 180.575 10.2022 179.987 9.98741C179.399 9.77263 178.811 9.59364 178.224 9.43256C177.616 9.27147 177.009 9.14618 176.401 9.05669C175.774 8.96719 175.147 8.8956 174.52 8.8598C174.187 8.8419 173.834 8.82401 173.501 8.82401H173.109C170.758 8.8598 168.465 9.28937 166.329 10.1306C164.193 10.9539 162.292 12.1352 160.646 13.6387C159 15.1422 157.707 16.8784 156.805 18.8114C155.884 20.7803 155.414 22.8565 155.395 25.0043V25.2907C155.434 29.5864 157.256 33.5956 160.529 36.6384L160.627 36.7279C160.627 36.7279 160.627 36.7279 160.646 36.7458L160.764 36.8532C164.115 39.8601 168.524 41.5247 173.207 41.5605H173.521C175.127 41.5426 176.676 41.3278 178.126 40.9161C178.792 40.7551 179.458 40.5761 180.085 40.3255C180.712 40.0749 181.339 39.8064 181.947 39.5022C182.162 39.3948 182.397 39.2874 182.672 39.2516C182.907 39.2337 183.181 39.2695 183.358 39.4306C183.377 39.4485 183.397 39.4843 183.416 39.5201C183.514 39.6811 183.514 39.8601 183.534 40.0391C183.554 40.236 183.573 40.4329 183.652 40.6119C183.73 40.7909 183.867 40.9698 184.063 41.0414C184.2 41.0951 184.337 41.0951 184.494 41.0951C184.749 41.0772 185.023 41.0772 185.278 41.0772C185.494 41.0772 185.729 41.0772 185.944 41.0772C186.199 41.0772 186.454 41.0772 186.728 41.0772C187.002 41.0772 187.296 41.0772 187.571 41.0772C187.865 41.0772 188.178 41.0772 188.472 41.0772C188.766 41.0772 189.08 41.0772 189.374 41.0772C189.668 41.0772 189.961 41.0772 190.275 41.0772C190.549 41.0772 190.843 41.0772 191.118 41.0772C191.372 41.0772 191.627 41.0772 191.882 41.0772C192.097 41.0772 192.313 41.0772 192.528 41.0772C192.705 41.0772 192.862 41.0772 193.038 41.0772C193.156 41.0772 193.254 41.0772 193.371 41.0772C193.41 41.0772 193.469 41.0772 193.508 41.0772C193.528 41.0772 193.528 41.0772 193.547 41.0772C193.9 41.0772 194.253 40.7551 194.253 40.4508V34.0073ZM177.89 40.2718C177.89 40.2718 177.792 40.2897 177.792 40.3076C176.401 40.6656 174.912 40.8446 173.383 40.8446C168.778 40.8446 164.467 39.2158 161.214 36.2446C157.981 33.2735 156.178 29.3358 156.178 25.1475C156.198 16.5741 163.879 9.55785 173.305 9.52205H173.383C174.01 9.52205 174.638 9.55785 175.265 9.61154C175.892 9.66524 176.499 9.77263 177.107 9.88002C177.714 10.0053 178.302 10.1485 178.89 10.3454C179.478 10.5244 180.046 10.7392 180.614 10.9718C181.183 11.2045 181.731 11.473 182.26 11.7773C182.495 11.9026 182.731 12.0279 182.927 12.171C183.142 12.3142 183.416 12.3679 183.671 12.3321C183.906 12.2963 184.122 12.1531 184.239 11.9563C184.377 11.7594 184.357 11.5625 184.377 11.3298C184.396 11.1329 184.416 10.936 184.416 10.7392L184.435 10.596V10.5781C184.435 10.5423 184.475 10.5244 184.514 10.5065H189.53C189.57 10.5065 189.609 10.5423 189.609 10.5781V33.4703C189.609 33.8104 189.961 34.0968 190.314 34.0968H193.41C193.449 34.0968 193.489 34.1326 193.489 34.1684V40.2897C193.489 40.3255 193.449 40.3613 193.41 40.3613C193.391 40.3613 193.371 40.3613 193.352 40.3613C193.293 40.3613 193.254 40.3613 193.195 40.3613C193.116 40.3613 193.038 40.3613 192.96 40.3613C192.862 40.3613 192.744 40.3613 192.646 40.3613C192.509 40.3613 192.391 40.3613 192.254 40.3613C192.097 40.3613 191.96 40.3613 191.803 40.3613C191.647 40.3613 191.47 40.3613 191.314 40.3613C191.137 40.3613 190.961 40.3613 190.784 40.3613C190.589 40.3613 190.412 40.3613 190.216 40.3613C190.02 40.3613 189.824 40.3613 189.628 40.3613C189.432 40.3613 189.236 40.3613 189.021 40.3613C188.884 40.3613 188.766 40.3613 188.629 40.3613C188.355 40.3613 188.08 40.3613 187.806 40.3613C187.453 40.3613 187.12 40.3613 186.767 40.3613C186.415 40.3613 186.081 40.3613 185.729 40.3613C185.376 40.3613 185.043 40.3613 184.69 40.3613C184.631 40.3613 184.573 40.3613 184.514 40.3613C184.455 40.3613 184.396 40.3613 184.357 40.3255C184.298 40.2897 184.279 40.2181 184.279 40.1465C184.239 39.878 184.259 39.6096 184.161 39.359C184.122 39.2516 184.083 39.1621 184.004 39.0726C183.867 38.8757 183.652 38.7325 183.397 38.643C183.162 38.5535 182.927 38.5177 182.672 38.5356H182.593C182.574 38.5356 182.535 38.5356 182.515 38.5535C182.476 38.5535 182.437 38.5714 182.397 38.5714H182.358C182.28 38.5893 182.202 38.6072 182.123 38.6251L182.006 38.6609L181.927 38.6967L181.849 38.7325C181.712 38.7862 181.555 38.8578 181.418 38.9473C181.339 38.9831 181.261 39.0368 181.183 39.0547L181.104 39.0905L181.026 39.1263L180.908 39.18H180.889C180.83 39.1979 180.771 39.2337 180.712 39.2516C180.614 39.2874 180.497 39.3411 180.379 39.3948C180.262 39.4485 180.144 39.4843 180.026 39.538H180.007C179.399 39.7706 178.772 39.9854 178.047 40.1644" fill="black"/>
<path d="M0.607422 46.9837H6.05504V47.3775H1.07772V50.0981H5.7807V50.4919H1.07772V53.8568H0.607422V46.9837Z" fill="#010101"/>
<path d="M14.8732 53.8568H14.3834V52.8724H14.3638C14.0306 53.463 13.3252 54 12.0906 54C9.62158 54 9.62158 52.5502 9.62158 51.9595V48.9168H10.1115V51.9416C10.1115 52.944 10.523 53.6062 12.1102 53.6062C13.6975 53.6062 14.4029 52.7113 14.4029 51.7985V48.9168H14.8928V53.8568H14.8732Z" fill="#010101"/>
<path d="M18.8706 48.9347H19.3605V50.0981H19.3801C19.7328 49.239 20.5558 48.7736 21.614 48.7736C21.7708 48.7736 21.8688 48.7915 22.0059 48.8273V49.2748C21.8884 49.239 21.7512 49.2211 21.4572 49.2211C20.0659 49.2211 19.3605 50.1876 19.3605 51.1899V53.8568H18.8706V48.9347Z" fill="#010101"/>
<path d="M25.3961 48.9347H25.886V49.9191H25.9055C26.2387 49.3285 26.9441 48.7915 28.1787 48.7915C30.6477 48.7915 30.6477 50.2413 30.6477 50.8319V53.8747H30.1578V50.8319C30.1578 49.8296 29.7463 49.1674 28.1591 49.1674C26.5718 49.1674 25.8664 50.0623 25.8664 50.9751V53.8568H25.3765V48.9347H25.3961Z" fill="#010101"/>
<path d="M34.6846 46.9837H35.1745V48.004H34.6846V46.9837ZM34.6846 48.9347H35.1745V53.8568H34.6846V48.9347Z" fill="#010101"/>
<path d="M39.7403 47.2701H40.2302V48.9347H41.8371V49.3106H40.2302V52.8545C40.2302 53.463 40.6025 53.5525 41.21 53.5525C41.4256 53.5525 41.6607 53.5167 41.8763 53.4988V53.8747C41.6215 53.9284 41.3276 53.9284 41.0532 53.9284C39.9363 53.9284 39.7403 53.5525 39.7403 52.6039V49.2927H38.5254V48.9168H39.7403V47.2701Z" fill="#010101"/>
<path d="M50.5964 53.8568H50.1065V52.8724H50.0869C49.7538 53.463 49.0483 54 47.8138 54C45.3447 54 45.3447 52.5502 45.3447 51.9595V48.9168H45.8346V51.9416C45.8346 52.944 46.2461 53.6062 47.8334 53.6062C49.4206 53.6062 50.1261 52.7113 50.1261 51.7985V48.9168H50.616V53.8568H50.5964Z" fill="#010101"/>
<path d="M54.5938 48.9347H55.0836V50.0981H55.1032C55.456 49.239 56.279 48.7736 57.3372 48.7736C57.4939 48.7736 57.5919 48.7915 57.7291 48.8273V49.2748C57.6115 49.239 57.4743 49.2211 57.1804 49.2211C55.7891 49.2211 55.0836 50.1876 55.0836 51.1899V53.8568H54.5938V48.9347Z" fill="#010101"/>
<path d="M61.276 51.4942C61.3152 52.7292 62.2166 53.6241 63.843 53.6241C65.5086 53.6241 65.9398 52.6576 66.1357 52.228H66.6256C66.1749 53.463 65.2343 54.0179 63.8038 54.0179C61.9618 54.0179 60.8057 52.9977 60.8057 51.3689C60.8057 50.3487 61.5307 48.7915 63.8234 48.7915C65.7046 48.7915 66.7628 49.9191 66.7824 51.4942H61.276ZM66.2337 51.1004C66.0377 49.758 64.9992 49.1674 63.7646 49.1674C62.3733 49.1674 61.5111 49.937 61.2956 51.1004H66.2337Z" fill="#010101"/>
<path d="M75.6983 51.5837C75.7179 52.8545 76.5605 53.6241 78.5789 53.6241C80.4209 53.6241 81.0872 52.9082 81.0872 52.1027C81.0872 51.3331 80.6952 50.993 79.108 50.6888L77.7167 50.4203C76.0706 50.0981 75.4436 49.6685 75.4436 48.6304C75.4436 47.6102 76.4234 46.8585 78.285 46.8585C80.1858 46.8585 81.3811 47.4849 81.4399 48.9526H80.95C80.8912 48.1651 80.4013 47.2343 78.4221 47.2343C76.5997 47.2343 75.9923 47.8429 75.9923 48.6304C75.9923 49.3643 76.345 49.7222 77.7755 49.9907L79.3235 50.2771C80.8324 50.5456 81.6554 50.993 81.6554 52.0848C81.6554 53.0156 80.9892 54.0179 78.6377 54.0179C76.1686 54.0179 75.228 53.0514 75.228 51.6016H75.6983V51.5837Z" fill="#010101"/>
<path d="M85.8883 47.2701H86.3782V48.9347H87.9851V49.3106H86.3782V52.8545C86.3782 53.463 86.7506 53.5525 87.358 53.5525C87.5736 53.5525 87.8087 53.5167 88.0243 53.4988V53.8747C87.7695 53.9284 87.4756 53.9284 87.2013 53.9284C86.0843 53.9284 85.8883 53.5525 85.8883 52.6039V49.2927H84.6538V48.9168H85.8687V47.2701H85.8883Z" fill="#010101"/>
<path d="M96.7443 53.8568H96.2544V52.8724H96.2349C95.9017 53.463 95.1963 54 93.9617 54C91.4927 54 91.4927 52.5502 91.4927 51.9595V48.9168H91.9826V51.9416C91.9826 52.944 92.3941 53.6062 93.9813 53.6062C95.5686 53.6062 96.274 52.7113 96.274 51.7985V48.9168H96.7639V53.8568H96.7443Z" fill="#010101"/>
<path d="M105.7 52.765H105.68C105.425 53.3556 104.681 54 103.289 54C101.388 54 100.409 52.765 100.409 51.3689C100.409 49.7938 101.643 48.7736 103.289 48.7736C104.622 48.7736 105.366 49.4358 105.68 49.9728H105.7V46.9837H106.189V53.8389H105.7V52.765ZM105.778 51.4405C105.778 49.7043 104.406 49.1674 103.309 49.1674C102.074 49.1674 100.918 49.8833 100.918 51.3689C100.918 52.7829 101.918 53.6241 103.25 53.6241C105.268 53.6241 105.778 52.3175 105.778 51.4405Z" fill="#010101"/>
<path d="M110.226 46.9837H110.716V48.004H110.226V46.9837ZM110.226 48.9347H110.716V53.8568H110.226V48.9347Z" fill="#010101"/>
<path d="M117.476 48.7736C119.397 48.7736 120.514 50.0086 120.514 51.3868C120.514 52.765 119.397 54 117.476 54C115.556 54 114.439 52.765 114.439 51.3868C114.439 50.0086 115.556 48.7736 117.476 48.7736ZM117.476 53.6241C119.181 53.6241 120.043 52.5144 120.043 51.3868C120.043 50.2592 119.181 49.1495 117.476 49.1495C115.771 49.1495 114.909 50.2592 114.909 51.3868C114.929 52.5144 115.771 53.6241 117.476 53.6241Z" fill="#010101"/>
<path d="M129.41 46.9837H135.328V47.3775H129.88V50.0981H135.113V50.4919H129.88V53.463H135.406V53.8568H129.41V46.9837Z" fill="#010101"/>
<path d="M143.147 50.3666C143.068 49.5433 142.5 49.1495 141.109 49.1495C139.776 49.1495 139.345 49.6149 139.345 50.1339C139.345 50.6709 139.796 50.8857 140.423 50.9751L142.147 51.1899C143.166 51.3152 143.833 51.6553 143.833 52.5323C143.833 53.8747 142.167 54 141.246 54C139.757 54 138.679 53.5346 138.62 52.3175H139.11C139.169 52.8187 139.286 53.6241 141.383 53.6241C142.794 53.6241 143.343 53.2483 143.343 52.5323C143.343 51.9596 142.892 51.709 142.265 51.6374L140.364 51.4047C139.698 51.3331 138.855 51.0467 138.855 50.1697C138.855 49.6149 139.286 48.7736 141.109 48.7736C143.108 48.7736 143.558 49.597 143.617 50.3666H143.147Z" fill="#010101"/>
<path d="M147.987 47.2701H148.477V48.9347H150.084V49.3106H148.477V52.8545C148.477 53.463 148.849 53.5525 149.457 53.5525C149.672 53.5525 149.907 53.5167 150.123 53.4988V53.8747C149.868 53.9284 149.574 53.9284 149.3 53.9284C148.183 53.9284 147.987 53.5525 147.987 52.6039V49.2927H146.772V48.9168H147.987V47.2701Z" fill="#010101"/>
<path d="M154.453 52.8903H153.905V53.8568H154.453V52.8903Z" fill="#010101"/>
<path d="M169.542 53.8568H163.938C164.095 52.6039 164.683 52.1922 166.446 51.2794C168.151 50.3845 168.896 50.0265 168.896 48.9526C168.896 47.9145 168.112 47.3238 166.701 47.3238C165.153 47.3238 164.545 48.0935 164.545 49.3464H164.056C164.075 47.6639 164.996 46.9301 166.779 46.9301C168.543 46.9301 169.386 47.7534 169.386 48.9168C169.386 50.1697 168.661 50.5635 166.623 51.6374C165.898 52.0132 164.487 52.7292 164.487 53.463H169.542V53.8568Z" fill="#010101"/>
<path d="M176.381 54C174.069 54 173.285 52.3354 173.285 50.4561C173.285 48.5767 174.089 46.9122 176.381 46.9122C178.713 46.9122 179.477 48.5588 179.477 50.4561C179.477 52.3712 178.713 54 176.381 54ZM176.381 47.3238C174.363 47.3238 173.755 48.8631 173.755 50.474C173.755 52.067 174.343 53.6241 176.381 53.6241C178.439 53.6241 179.007 52.1207 179.007 50.474C178.988 48.8273 178.419 47.3238 176.381 47.3238Z" fill="#010101"/>
<path d="M185.689 53.8568H185.2V47.8429C184.553 48.3977 183.652 48.6483 182.868 48.7199V48.3261C183.652 48.2903 184.925 47.7892 185.258 47.0732H185.67V53.8568H185.689Z" fill="#010101"/>
<path d="M191.411 53.8568H190.921V47.8429C190.275 48.3977 189.373 48.6483 188.589 48.7199V48.3261C189.373 48.2903 190.647 47.7892 190.98 47.0732H191.392V53.8568H191.411Z" fill="#010101"/>
</g>
<defs>
<clipPath id="clip0_385_696">
<rect width="194.253" height="54" fill="white"/>
</clipPath>
</defs>
</svg>
